<?xml version="1.0" encoding="UTF-8"?>
<!DOCTYPE svg PUBLIC "-//W3C//DTD SVG 1.1//EN" "http://www.w3.org/Graphics/SVG/1.1/DTD/svg11.dtd">
<!-- Creator: CorelDRAW 2018 (64 Bit Versão de avaliação) -->
<svg xmlns="http://www.w3.org/2000/svg" xml:space="preserve" width="300mm" height="300mm" version="1.1" style="shape-rendering:geometricPrecision; text-rendering:geometricPrecision; image-rendering:optimizeQuality; fill-rule:evenodd; clip-rule:evenodd"
viewBox="0 0 30000 30000"
 xmlns:xlink="http://www.w3.org/1999/xlink">
 <defs>
  <style type="text/css">
   <![CDATA[
    .fil0 {fill:#C28E18}
    .fil1 {fill:#C28E18;fill-rule:nonzero}
   ]]>
  </style>
 </defs>
 <g id="Camada_x0020_1">
  <metadata id="CorelCorpID_0Corel-Layer"/>
  <g id="_1551646531760">
   <path class="fil0" d="M11346.42 16368.83c1220.09,-7285.36 -8137.56,-8755.37 -9998.28,-14570.75 211.81,3872.23 1724.25,5814.13 4089.91,7591.37 -1541.79,-631.67 -3189.57,-1698.74 -4131.12,-3130.71 107.9,2147.94 1439.8,3636.82 2883.56,4802 -1008.28,-282.45 -1998.87,-1200.44 -2636.41,-1841.89 1710.55,5841.6 7940.58,2720.71 9792.34,7149.98z"/>
   <path class="fil0" d="M11855.87 20927.5c-998,-2881.52 1843.36,-6734.52 3362.39,-4306.24 91.17,145.73 381.08,-714.49 124.38,-1504.02 -240.29,-738.97 -1056.82,-1344.22 -773.76,-1494.85 3679.59,-1958.18 9422.69,314.84 14124.2,-2669.56 -2127.58,2643.07 -4486.77,3531.61 -7695.98,3649.93 1532.69,653.37 3302.59,417.19 4918.38,-30.6 -1457.28,1850.05 -3181.16,1899.12 -5578.65,2024.33 1021.21,448.43 2823.78,158.83 3728.19,161.88 -4440.78,3381.15 -11757.9,-2026.74 -12209.15,4169.13z"/>
   <path class="fil0" d="M14618.08 14621.52c0,0 308.93,67.72 250.11,461.99 0,0 -338.36,-73.56 -250.11,-461.99z"/>
   <polygon class="fil1" points="3787.18,22731.53 3787.18,22126.34 1582.3,22126.34 1582.3,25763.84 2315.67,25763.84 2315.67,24238.45 3570.64,24238.45 3570.64,23583.79 2315.67,23583.79 2315.67,22731.53 "/>
   <path class="fil1" d="M7468.63 25763.84l726.61 0 -1364.36 -3525.05 -640.91 0 -1359.31 3525.05 741.77 0 312.2 -902.48 1271.8 0 312.2 902.48zm-1439.84 -1515.96l470.71 -1208.39 429.5 1208.39 -900.21 0z"/>
   <polygon class="fil1" points="9471.06,25763.84 11754.27,25763.84 11754.27,25099.11 10286.86,25099.11 10286.86,22191.71 9471.06,22191.71 "/>
   <path class="fil1" d="M14666.09 25824.26c614.37,0 1122.98,-221.56 1455.32,-629.45 195.87,-261.99 -297.83,-748.93 -523.69,-483.45 -236.69,276.97 -533.81,417.97 -886.33,417.97 -659.67,0 -1127.99,-463.31 -1127.99,-1128 0,-664.72 468.32,-1292.79 1127.99,-1292.79 352.52,0 584.91,29.18 821.59,301.13 244.55,240.82 720.71,-216.22 485.66,-448.32 -332.35,-402.88 -738.18,-530.14 -1347.53,-530.14 -1097.78,0 -1913.57,907.57 -1913.57,1970.12 0,1062.55 815.79,1822.93 1908.55,1822.93z"/>
   <path class="fil1" d="M18309.21 21649.62c181.28,0 357.54,317.25 705.01,317.25 352.52,0 579.14,-287.04 589.21,-720.13l-397.86 0c-10.07,166.19 -105.73,271.95 -241.7,271.95 -181.28,0 -357.54,-322.31 -705.01,-322.31 -352.49,0 -579.11,287.05 -589.18,735.23l397.83 0c10.07,-181.28 105.76,-281.99 241.7,-281.99z"/>
   <path class="fil1" d="M23085.38 25824.26c1107.85,0 1928.7,-770.45 1928.7,-1822.93 0,-1052.48 -820.85,-1822.96 -1928.7,-1822.96 -1112.9,0 -1928.69,775.5 -1928.69,1822.96 0,1047.43 815.79,1822.93 1928.69,1822.93zm0 -694.93c-629.46,0 -1102.83,-458.25 -1102.83,-1128 0,-669.78 473.37,-1128.03 1102.83,-1128.03 629.46,0 1102.83,458.25 1102.83,1128.03 0,669.75 -473.37,1128 -1102.83,1128z"/>
   <path class="fil1" d="M19515.75 25763.84l726.61 0 -1364.37 -3525.05 -640.91 0 -1359.31 3525.05 741.77 0 312.2 -902.48 1271.8 0 312.21 902.48zm-1439.84 -1515.96l470.7 -1208.39 429.5 1208.39 -900.2 0z"/>
   <path class="fil1" d="M6150.68 28049.79c35.94,95.09 67.61,135.23 166.94,135.23 88.71,0 135.19,-31.67 135.19,-86.62 0,-21.14 -6.33,-48.61 -16.9,-76.05l-433.13 -1083.9c-38.01,-92.95 -69.71,-152.1 -171.14,-152.1 -101.42,0 -135.23,57.05 -173.23,150l-450.03 1083.87c-12.67,31.7 -21.14,54.94 -21.14,80.28 0,48.61 33.81,84.52 124.66,84.52 107.76,0 139.43,-48.58 173.23,-135.23l88.76 -234.52 490.17 0 86.62 234.52zm-329.61 -878.92l156.37 411.98 -314.83 0 158.46 -411.98zm2498.62 308.46c0,-280.99 -109.86,-456.36 -255.62,-557.78 -150.03,-103.53 -333.84,-131 -559.92,-131 -107.76,0 -217.61,6.34 -280.99,21.14 -116.23,25.37 -135.23,71.85 -135.23,162.7l0 1028.92c0,76.09 10.57,120.43 80.28,147.9 57.05,21.14 156.37,33.81 293.7,33.81 226.04,0 426.79,-33.81 585.26,-137.33 141.53,-92.95 272.52,-264.09 272.52,-568.36zm-946.54 -437.32c0,0 54.95,-10.57 152.14,-10.57 154.23,0 264.09,25.34 350.74,92.95 86.62,67.62 154.23,185.94 154.23,367.65 0,424.65 -365.54,452.13 -519.78,452.13 -84.51,0 -137.33,-8.47 -137.33,-8.47l0 -893.69zm2095.07 756.36l-325.37 -866.25c-33.81,-92.96 -65.48,-141.57 -179.57,-141.57 -92.99,0 -139.47,33.81 -139.47,92.99 0,27.47 8.47,54.91 21.14,86.62l433.13 1060.62c40.14,97.19 67.61,158.47 179.57,158.47 107.75,0 137.36,-57.04 179.6,-156.33l447.94 -1064.86c16.9,-42.28 23.23,-69.75 23.23,-88.76 0,-54.94 -42.27,-88.75 -135.23,-88.75 -120.42,0 -149.99,57.05 -181.7,141.57l-323.27 866.25zm1142.19 -308.47c0,409.89 276.79,712.02 714.15,712.02 439.47,0 724.69,-302.13 724.69,-716.25 0,-409.89 -276.79,-712.02 -714.12,-712.02 -439.46,0 -724.72,302.13 -724.72,716.25zm291.6 -4.23c0,-295.8 162.66,-469.04 426.79,-469.04 264.09,0 428.89,173.24 428.89,473.27 0,295.8 -162.7,469.07 -426.79,469.07 -264.09,0 -428.89,-173.27 -428.89,-473.3zm2946.55 249.32c0,-48.58 0,-82.39 -21.14,-109.86 -25.34,-33.81 -69.72,-44.38 -120.43,-44.38 -69.71,0 -103.52,19.01 -122.52,44.38 -21.14,27.47 -21.14,61.28 -21.14,109.86l0 169.03c0,0 -82.39,38.05 -202.85,38.05 -238.71,0 -437.32,-150.04 -437.32,-462.74 0,-325.37 215.48,-447.89 428.89,-447.89 84.52,0 156.33,19 219.75,44.34 63.38,25.37 103.52,52.85 145.76,52.85 73.95,0 114.09,-90.86 114.09,-147.9 0,-52.85 -33.81,-88.76 -99.29,-122.56 -99.32,-52.81 -236.65,-80.29 -367.64,-80.29 -361.28,0 -733.16,202.85 -733.16,705.69 0,471.17 325.4,709.92 726.82,709.92 135.23,0 259.89,-27.48 357.08,-65.52 114.09,-44.37 133.1,-86.62 133.1,-171.13l0 -221.85zm1524.6 314.8c35.95,95.09 67.62,135.23 166.94,135.23 88.72,0 135.19,-31.67 135.19,-86.62 0,-21.14 -6.33,-48.61 -16.9,-76.05l-433.13 -1083.9c-38,-92.95 -69.71,-152.1 -171.13,-152.1 -101.42,0 -135.23,57.05 -173.24,150l-450.03 1083.87c-12.67,31.7 -21.14,54.94 -21.14,80.28 0,48.61 33.81,84.52 124.66,84.52 107.76,0 139.43,-48.58 173.24,-135.23l88.75 -234.52 490.17 0 86.62 234.52zm-329.6 -878.92l156.37 411.98 -314.84 0 158.47 -411.98zm2498.62 308.46c0,-280.99 -109.86,-456.36 -255.62,-557.78 -150.04,-103.53 -333.84,-131 -559.93,-131 -107.75,0 -217.61,6.34 -280.99,21.14 -116.23,25.37 -135.23,71.85 -135.23,162.7l0 1028.92c0,76.09 10.57,120.43 80.28,147.9 57.05,21.14 156.37,33.81 293.7,33.81 226.05,0 426.79,-33.81 585.26,-137.33 141.53,-92.95 272.53,-264.09 272.53,-568.36zm-946.54 -437.32c0,0 54.94,-10.57 152.13,-10.57 154.24,0 264.09,25.34 350.75,92.95 86.61,67.62 154.23,185.94 154.23,367.65 0,424.65 -365.55,452.13 -519.78,452.13 -84.52,0 -137.33,-8.47 -137.33,-8.47l0 -893.69zm1528.84 447.89c0,409.89 276.79,712.02 714.16,712.02 439.46,0 724.68,-302.13 724.68,-716.25 0,-409.89 -276.79,-712.02 -714.11,-712.02 -439.47,0 -724.73,302.13 -724.73,716.25zm291.6 -4.23c0,-295.8 162.67,-469.04 426.79,-469.04 264.09,0 428.89,173.24 428.89,473.27 0,295.8 -162.7,469.07 -426.79,469.07 -264.09,0 -428.89,-173.27 -428.89,-473.3zm2033.82 -335.94c0,-76.05 63.38,-131 160.56,-131 116.2,0 185.95,82.42 255.66,82.42 65.48,0 118.33,-73.95 118.33,-133.09 0,-107.76 -185.94,-190.18 -371.89,-190.18 -253.52,0 -447.89,154.24 -447.89,386.65 0,261.99 251.42,359.18 386.65,431.03 88.72,46.48 173.24,101.42 173.24,200.71 0,97.19 -78.19,158.47 -188.04,158.47 -141.57,0 -207.05,-103.53 -285.23,-103.53 -69.72,0 -114.09,78.15 -114.09,137.33 0,61.25 50.71,105.62 111.99,137.33 86.62,44.38 194.37,69.72 295.8,69.72 245.08,0 464.79,-147.9 464.79,-411.99 0,-175.37 -97.18,-283.13 -213.37,-357.08 -147.9,-92.95 -346.51,-145.8 -346.51,-276.79z"/>
  </g>
 </g>
</svg>
