<svg width="80" height="78" viewBox="0 0 80 78" fill="none" xmlns="http://www.w3.org/2000/svg">
<path fill-rule="evenodd" clip-rule="evenodd" d="M29.3272 42.5638C32.8913 21.282 5.55589 16.9878 0.120382 0C0.739118 11.3115 5.15723 16.9841 12.0678 22.1758C7.56391 20.3306 2.75044 17.2135 0 13.0304C0.315196 19.3049 4.20592 23.6542 8.42341 27.0579C5.47804 26.2328 2.58434 23.5512 0.72197 21.6774C5.7188 38.7418 23.9179 29.6251 29.3272 42.5638Z" fill="#C28E18"/>
<path fill-rule="evenodd" clip-rule="evenodd" d="M30.8153 55.8806C27.8999 47.4631 36.2 36.2078 40.6374 43.3012C40.9037 43.7269 41.7506 41.2141 41.0008 38.9077C40.2988 36.749 37.9136 34.981 38.7405 34.541C49.4892 28.8208 66.2659 35.4607 79.9999 26.7427C73.7848 34.4636 66.8932 37.0592 57.5185 37.4048C61.9957 39.3134 67.166 38.6235 71.886 37.3154C67.629 42.7198 62.5932 42.8631 55.5897 43.2289C58.5728 44.5388 63.8385 43.6928 66.4804 43.7018C53.5081 53.5787 32.1334 37.7813 30.8153 55.8806Z" fill="#C28E18"/>
<path fill-rule="evenodd" clip-rule="evenodd" d="M38.8842 37.4596C38.8842 37.4596 39.7866 37.6575 39.6148 38.8092C39.6148 38.8092 38.6264 38.5943 38.8842 37.4596Z" fill="#C28E18"/>
<path d="M7.24506 61.1505V59.3826H0.804199V70.0084H2.94651V65.5525H6.61251V63.6401H2.94651V61.1505H7.24506Z" fill="#C28E18"/>
<path d="M17.9995 70.0084H20.122L16.1365 59.7111H14.2643L10.2935 70.0084H12.4603L13.3723 67.3721H17.0875L17.9995 70.0084ZM13.7934 65.58L15.1684 62.0501L16.4231 65.58H13.7934Z" fill="#C28E18"/>
<path d="M23.8491 70.0084H30.5188V68.0666H26.2322V59.5736H23.8491V70.0084Z" fill="#C28E18"/>
<path d="M39.0244 70.1849C40.8191 70.1849 42.3049 69.5377 43.2757 68.3462C43.8479 67.5808 42.4057 66.1584 41.7459 66.9339C41.0545 67.743 40.1865 68.1549 39.1568 68.1549C37.2298 68.1549 35.8617 66.8015 35.8617 64.8598C35.8617 62.918 37.2298 61.0833 39.1568 61.0833C40.1865 61.0833 40.8654 61.1685 41.5568 61.963C42.2712 62.6664 43.6621 61.3313 42.9755 60.6533C42.0046 59.4765 40.8191 59.1047 39.0391 59.1047C35.8323 59.1047 33.4492 61.7559 33.4492 64.8598C33.4492 67.9637 35.8323 70.1849 39.0244 70.1849Z" fill="#C28E18"/>
<path d="M49.667 57.99C50.1966 57.99 50.7115 58.9168 51.7265 58.9168C52.7563 58.9168 53.4183 58.0783 53.4477 56.8131H52.2854C52.256 57.2986 51.9766 57.6075 51.5794 57.6075C51.0498 57.6075 50.535 56.666 49.5199 56.666C48.4902 56.666 47.8282 57.5045 47.7988 58.8138H48.961C48.9904 58.2842 49.2699 57.99 49.667 57.99Z" fill="#C28E18"/>
<path d="M63.6189 70.1849C66.8552 70.1849 69.253 67.9343 69.253 64.8598C69.253 61.7853 66.8552 59.5346 63.6189 59.5346C60.3679 59.5346 57.9849 61.8 57.9849 64.8598C57.9849 67.9195 60.3679 70.1849 63.6189 70.1849ZM63.6189 68.1549C61.7802 68.1549 60.3974 66.8162 60.3974 64.8598C60.3974 62.9032 61.7802 61.5646 63.6189 61.5646C65.4577 61.5646 66.8405 62.9032 66.8405 64.8598C66.8405 66.8162 65.4577 68.1549 63.6189 68.1549Z" fill="#C28E18"/>
<path d="M53.1914 70.0084H55.3139L51.3284 59.7111H49.4561L45.4854 70.0084H47.6522L48.5642 67.3721H52.2794L53.1914 70.0084ZM48.9853 65.58L50.3603 62.0501L51.615 65.58H48.9853Z" fill="#C28E18"/>
<path d="M14.1493 76.6861C14.2543 76.9639 14.3468 77.0811 14.637 77.0811C14.8961 77.0811 15.0319 76.9886 15.0319 76.8281C15.0319 76.7663 15.0134 76.6861 14.9826 76.6059L13.7173 73.4397C13.6063 73.1681 13.5137 72.9953 13.2174 72.9953C12.9211 72.9953 12.8223 73.162 12.7113 73.4335L11.3967 76.5997C11.3597 76.6923 11.335 76.7602 11.335 76.8342C11.335 76.9762 11.4337 77.0811 11.6991 77.0811C12.0139 77.0811 12.1064 76.9392 12.2052 76.6861L12.4644 76.001H13.8963L14.1493 76.6861ZM13.1865 74.1186L13.6433 75.3221H12.7236L13.1865 74.1186ZM20.4854 75.0197C20.4854 74.1988 20.1645 73.6866 19.7387 73.3903C19.3004 73.0879 18.7635 73.0076 18.1031 73.0076C17.7883 73.0076 17.4674 73.0261 17.2823 73.0694C16.9427 73.1435 16.8872 73.2793 16.8872 73.5447V76.5503C16.8872 76.7726 16.9181 76.9021 17.1217 76.9824C17.2884 77.0441 17.5785 77.0811 17.9797 77.0811C18.64 77.0811 19.2264 76.9824 19.6893 76.68C20.1028 76.4084 20.4854 75.9085 20.4854 75.0197ZM17.7204 73.7422C17.7204 73.7422 17.8809 73.7113 18.1648 73.7113C18.6154 73.7113 18.9363 73.7853 19.1894 73.9828C19.4424 74.1804 19.6399 74.526 19.6399 75.0568C19.6399 76.2973 18.5721 76.3776 18.1216 76.3776C17.8747 76.3776 17.7204 76.3528 17.7204 76.3528V73.7422ZM23.8405 75.9516L22.89 73.4212C22.7913 73.1496 22.6987 73.0076 22.3655 73.0076C22.0938 73.0076 21.9581 73.1064 21.9581 73.2793C21.9581 73.3595 21.9828 73.4397 22.0198 73.5323L23.2851 76.6306C23.4023 76.9145 23.4826 77.0935 23.8096 77.0935C24.1244 77.0935 24.2109 76.9269 24.3343 76.6368L25.6428 73.5262C25.6921 73.4027 25.7106 73.3224 25.7106 73.2669C25.7106 73.1064 25.5872 73.0076 25.3156 73.0076C24.9638 73.0076 24.8775 73.1743 24.7848 73.4212L23.8405 75.9516ZM27.177 75.0506C27.177 76.2479 27.9856 77.1305 29.2632 77.1305C30.547 77.1305 31.3802 76.2479 31.3802 75.0382C31.3802 73.8408 30.5716 72.9583 29.2941 72.9583C28.0103 72.9583 27.177 73.8408 27.177 75.0506ZM28.0289 75.0382C28.0289 74.1741 28.504 73.668 29.2756 73.668C30.047 73.668 30.5285 74.1741 30.5285 75.0506C30.5285 75.9146 30.0532 76.4208 29.2817 76.4208C28.5103 76.4208 28.0289 75.9146 28.0289 75.0382ZM36.6363 75.7665C36.6363 75.6246 36.6363 75.5258 36.5745 75.4456C36.5005 75.3468 36.3709 75.3159 36.2227 75.3159C36.0191 75.3159 35.9203 75.3715 35.8648 75.4456C35.8031 75.5258 35.8031 75.6246 35.8031 75.7665V76.2603C35.8031 76.2603 35.5624 76.3714 35.2105 76.3714C34.5132 76.3714 33.933 75.9331 33.933 75.0197C33.933 74.0692 34.5625 73.7113 35.1859 73.7113C35.4328 73.7113 35.6425 73.7668 35.8278 73.8408C36.0129 73.9149 36.1302 73.9952 36.2536 73.9952C36.4696 73.9952 36.5869 73.7298 36.5869 73.5632C36.5869 73.4088 36.4881 73.3039 36.2968 73.2051C36.0067 73.0509 35.6055 72.9706 35.2229 72.9706C34.1675 72.9706 33.0812 73.5632 33.0812 75.0321C33.0812 76.4084 34.0317 77.1059 35.2044 77.1059C35.5994 77.1059 35.9636 77.0256 36.2475 76.9145C36.5807 76.7849 36.6363 76.6614 36.6363 76.4146V75.7665ZM41.0899 76.6861C41.1949 76.9639 41.2874 77.0811 41.5776 77.0811C41.8367 77.0811 41.9725 76.9886 41.9725 76.8281C41.9725 76.7663 41.954 76.6861 41.9231 76.6059L40.6579 73.4397C40.5469 73.1681 40.4542 72.9953 40.158 72.9953C39.8617 72.9953 39.7629 73.162 39.6519 73.4335L38.3373 76.5997C38.3003 76.6923 38.2755 76.7602 38.2755 76.8342C38.2755 76.9762 38.3743 77.0811 38.6397 77.0811C38.9545 77.0811 39.047 76.9392 39.1457 76.6861L39.405 76.001H40.8369L41.0899 76.6861ZM40.1271 74.1186L40.5839 75.3221H39.6642L40.1271 74.1186ZM47.426 75.0197C47.426 74.1988 47.1051 73.6866 46.6793 73.3903C46.241 73.0879 45.7041 73.0076 45.0436 73.0076C44.7289 73.0076 44.408 73.0261 44.2228 73.0694C43.8833 73.1435 43.8278 73.2793 43.8278 73.5447V76.5503C43.8278 76.7726 43.8587 76.9021 44.0623 76.9824C44.229 77.0441 44.5191 77.0811 44.9203 77.0811C45.5806 77.0811 46.167 76.9824 46.6299 76.68C47.0433 76.4084 47.426 75.9085 47.426 75.0197ZM44.661 73.7422C44.661 73.7422 44.8215 73.7113 45.1054 73.7113C45.556 73.7113 45.8769 73.7853 46.13 73.9828C46.383 74.1804 46.5805 74.526 46.5805 75.0568C46.5805 76.2973 45.5127 76.3776 45.0622 76.3776C44.8153 76.3776 44.661 76.3528 44.661 76.3528V73.7422ZM49.127 75.0506C49.127 76.2479 49.9356 77.1305 51.2132 77.1305C52.497 77.1305 53.3301 76.2479 53.3301 75.0382C53.3301 73.8408 52.5216 72.9583 51.2441 72.9583C49.9603 72.9583 49.127 73.8408 49.127 75.0506ZM49.9788 75.0382C49.9788 74.1741 50.454 73.668 51.2256 73.668C51.997 73.668 52.4784 74.1741 52.4784 75.0506C52.4784 75.9146 52.0032 76.4208 51.2317 76.4208C50.4603 76.4208 49.9788 75.9146 49.9788 75.0382ZM55.92 74.0569C55.92 73.8347 56.1052 73.6742 56.389 73.6742C56.7285 73.6742 56.9322 73.9149 57.1359 73.9149C57.3271 73.9149 57.4815 73.6989 57.4815 73.5262C57.4815 73.2114 56.9384 72.9706 56.3952 72.9706C55.6546 72.9706 55.0868 73.4212 55.0868 74.1001C55.0868 74.8654 55.8212 75.1493 56.2163 75.3592C56.4754 75.495 56.7223 75.6555 56.7223 75.9455C56.7223 76.2294 56.4939 76.4084 56.173 76.4084C55.7595 76.4084 55.5682 76.106 55.3398 76.106C55.1362 76.106 55.0065 76.3343 55.0065 76.5072C55.0065 76.6861 55.1547 76.8157 55.3337 76.9083C55.5867 77.038 55.9015 77.112 56.1978 77.112C56.9137 77.112 57.5555 76.68 57.5555 75.9085C57.5555 75.3962 57.2716 75.0814 56.9322 74.8654C56.5002 74.5939 55.92 74.4395 55.92 74.0569Z" fill="#C28E18"/>
</svg>
